# xmcd
#
# Track frame offsets: 
#        150
#        13897
#        30175
#        53427
#        64607
#        83285
#        94980
#        110925
#        127957
#        140797
#        160650
#
# Disc length: 2342 seconds
#
# Revision: 1
# Processed by: cddbd v1.5.2PL0 Copyright (c) Steve Scherf et al.
# Submitted via: ExactAudioCopyFreeDBPlugin 1.0
#
DISCID=8409240b
DTITLE=Staffan Hellstrand - Pasha Jims dagbok
DYEAR=1996
DGENRE=Pop
TTITLE0=Fanfar
TTITLE1=En ny Ida Lupino
TTITLE2=Precis som du är
TTITLE3=Blåljus
TTITLE4=Du går aldrig ensam
TTITLE5=Ingen ska få andas
TTITLE6=Marlene
TTITLE7=Gå hem
TTITLE8=Vargbanen
TTITLE9=Pasha Jim
TTITLE10=Trösta mig
EXTD=
EXTT0=
EXTT1=
EXTT2=
EXTT3=
EXTT4=
EXTT5=
EXTT6=
EXTT7=
EXTT8=
EXTT9=
EXTT10=
PLAYORDER=
